<?xml version="1.0" encoding="utf-8"?>
<!-- Generator: Adobe Illustrator 26.1.0, SVG Export Plug-In . SVG Version: 6.00 Build 0)  -->
<svg version="1.1" id="Layer_1" xmlns="http://www.w3.org/2000/svg" xmlns:xlink="http://www.w3.org/1999/xlink" x="0px" y="0px"
	 viewBox="0 0 489 53.8" style="enable-background:new 0 0 489 53.8;" xml:space="preserve">
<polyline points="428.9,21.3 428.9,53.7 439.3,53.7 439.3,32.1 477.1,32.1 477.1,53.7 487.5,53.7 487.5,21.3 428.9,21.3 "/>
<path d="M438.1,10.8h40c5.5-1.1,9.7-6,10.9-10.7h-61.7C428.4,4.8,432.6,9.7,438.1,10.8"/>
<path d="M378.7,53.7c4.6-1.8,8-5.7,9.1-10.6h-46.6V0.1l-10.4,0v53.6H378.7"/>
<path d="M229.2,10.6h36.9c5.6-1.6,10.2-5.9,11.4-10.6h-58.7v31.7h48v11.1h-37.7c-5.8,1.5-10.7,5.5-13.4,10.8l3.1-0.1h58.3V21.2h-48
	L229.2,10.6"/>
<path d="M121.7,10.8h40c5.6-1.1,9.7-6,10.9-10.8h-61.7C112,4.8,116.2,9.6,121.7,10.8"/>
<path d="M121.7,31.9h40c5.6-1.1,9.7-6,10.9-10.7h-61.7C112,26,116.2,30.9,121.7,31.9"/>
<path d="M121.7,53.7h40c5.6-1.1,9.7-6,10.9-10.8h-61.7C112,47.7,116.2,52.6,121.7,53.7"/>
<path d="M0,0.1c1.4,5.3,5.5,9.4,10.8,10.7h16.8l0.9,0.3v42.5H39V11.1l1-0.3h16.8c5.2-1.4,9.4-5.4,10.8-10.7V0H0V0.1"/>
</svg>
